HIERARCHY
ROOT pelvis
{
  OFFSET 0 100 0
  CHANNELS 6 Xposition Yposition Zposition Zrotation Xrotation Yrotation
  JOINT pelvis_right_femur
  {
    OFFSET -10.78128 -3.44521 -0.5502486
    CHANNELS 3 Zrotation Xrotation Yrotation
    JOINT right_femur_tibia
    {
      OFFSET -0.8047443 -44.0398 -0.1307829
      CHANNELS 3 Zrotation Xrotation Yrotation
      JOINT right_tibia_foot
      {
        OFFSET 3.006224 -47.83518 -5
        CHANNELS 3 Zrotation Xrotation Yrotation
        End Site
        {
          OFFSET 0 -5 15
        }
      }
    }
  }
  JOINT pelvis_left_femur
  {
    OFFSET 10.78128 -3.44521 -0.5502486
    CHANNELS 3 Zrotation Xrotation Yrotation
    JOINT left_femur_tibia
    {
      OFFSET 0.8047443 -44.0398 -0.1307829
      CHANNELS 3 Zrotation Xrotation Yrotation
      JOINT left_tibia_foot
      {
        OFFSET -4.370144 -48.10324 -4.275266
        CHANNELS 3 Zrotation Xrotation Yrotation
        End Site
        {
          OFFSET 0 -5 15
        }
      }
    }
  }
  JOINT pelvis_spine1
  {
    OFFSET 0 6.468898 -3.129235
    CHANNELS 3 Zrotation Xrotation Yrotation
    JOINT spine1
    {
      OFFSET 0 23.15396 4.99043
      CHANNELS 3 Zrotation Xrotation Yrotation
      JOINT spine2
      {
        OFFSET 0 20.79997 -5.064912
        CHANNELS 3 Zrotation Xrotation Yrotation
        JOINT neck
        {
          OFFSET 0 14.38658 9.616178
          CHANNELS 3 Zrotation Xrotation Yrotation
          End Site
          {
            OFFSET 0 20 0
          }
        }
      }
      JOINT right_manubrium
      {
        OFFSET -5.722621 16.35077 3.967754
        CHANNELS 3 Zrotation Xrotation Yrotation
        JOINT right_clavicle
        {
          OFFSET -13.16364 1.694482 -4.693211
          CHANNELS 3 Zrotation Xrotation Yrotation
          JOINT right_humerus
          {
            OFFSET -28.5034 -0.3100689 -2.792744
            CHANNELS 3 Zrotation Xrotation Yrotation
            JOINT right_radius
            {
              OFFSET -25.15693 0.02248979 -1.271978
              CHANNELS 3 Zrotation Xrotation Yrotation
              End Site
              {
                OFFSET -15 0 0
              }
            }
          }
        }
      }
      JOINT left_manubrium
      {
        OFFSET 5.722621 16.35077 3.967754
        CHANNELS 3 Zrotation Xrotation Yrotation
        JOINT left_clavicle
        {
          OFFSET 13.16364 1.694482 -4.693211
          CHANNELS 3 Zrotation Xrotation Yrotation
          JOINT left_humerus
          {
            OFFSET 29.39168 -1.063119 -2.237045
            CHANNELS 3 Zrotation Xrotation Yrotation
            JOINT left_radius
            {
              OFFSET 24.59957 -0.9528479 0.9047498
              CHANNELS 3 Zrotation Xrotation Yrotation
              End Site
              {
                OFFSET 15 -0 -0
              }
            }
          }
        }
      }
    }
  }
}
MOTION
Frames: 17
Frame Time: 0.0416666666667
-82.41482 104.3612 2987.6 -1.268332 -6.806289 -8.842168 6.264416 -3.317562 3.393644 -0 14.13619 -0 -5.33807 -7.549224 -4.698457 -1.85692 -4.019106 -6.724125 -0 56.07759 -0 -6.124284 -6.269146 14.77353 -0.3419042 -2.276202 4.304406 1.127885 13.21341 -7.024143 1.132977 22.14861 5.413179 3.199239 -20.92741 6.173732 -0.09866509 -21.2714 12.02654 90.96935 21.98274 -18.73344 -0 0 12.93486 -20.07778 11.24583 9.302714 5.786822 -24.63651 -6.657764 -89.79767 15.76468 19.32829 0 0 -16.86328 12.60971 15.94729 -2.770476
-83.38361 105.1247 2993.22 -1.336794 -6.733528 -9.753494 6.162834 1.51711 3.310701 -0 12.35061 -0 -5.649643 -9.753252 -3.836067 -1.039246 -9.090246 -6.291398 -0 52.69423 -0 -5.592421 -5.340171 15.80069 -0.2958254 -2.257286 4.910759 0.8032452 13.33147 -6.430569 1.176197 22.14235 5.240659 3.143449 -20.72288 6.034833 -0.1736865 -22.27605 12.08589 89.83264 21.76857 -16.62718 -0 0 14.96257 -20.84705 11.2375 10.10157 5.466606 -23.86283 -6.516466 -90.99865 15.53394 21.68984 0 0 -14.45766 11.90692 15.85181 -1.95392
-84.25471 105.4292 2998.882 -1.355535 -6.528751 -10.67695 5.829621 5.807633 2.794216 -0 10.39866 -0 -5.836728 -11.40106 -2.837221 -0.1574905 -13.74396 -5.653493 -0 45.88014 -0 -4.947197 -5.055315 16.62311 -0.2464955 -2.248517 5.542818 0.4777301 13.45545 -5.834051 1.211586 22.11868 5.073229 3.093324 -20.54672 5.892969 -0.2290881 -23.32925 12.15565 88.68061 21.55468 -14.49283 -0 0 17.06742 -21.61534 11.23186 10.91259 5.134954 -23.08137 -6.362748 -92.26476 15.26194 24.15465 0 0 -12.01112 11.1746 15.75085 -1.08994
-85.01705 105.1966 3004.659 -1.319151 -6.279067 -11.54492 5.34454 9.578513 2.099677 -0 8.902178 -0 -5.874357 -12.55465 -1.815909 0.6864696 -17.85882 -4.973604 -0 37.15281 -0 -4.235801 -5.21751 17.32868 -0.1886502 -2.262126 6.197367 0.1613944 13.60198 -5.257575 1.230674 22.06371 4.918715 3.05327 -20.41941 5.746397 -0.2597063 -24.43606 12.24519 87.54053 21.35066 -12.39244 -0 0 19.22445 -22.38117 11.24964 11.72183 4.796977 -22.33167 -6.209281 -93.57719 14.91984 26.70681 0 0 -9.594253 10.44465 15.64716 -0.212755
-85.66807 104.4708 3010.556 -1.238444 -6.080055 -12.31695 4.771181 12.78479 1.491982 -0 8.471546 -0 -5.748248 -13.26362 -0.9169583 1.343655 -21.2468 -4.445887 -0 28.35459 -0 -3.542455 -5.599733 17.98181 -0.1220849 -2.304504 6.834111 -0.121601 13.77352 -4.748427 1.227318 21.97258 4.790608 3.027917 -20.35975 5.602368 -0.2608679 -25.5346 12.35549 86.49108 21.17858 -10.48469 -0 0 21.29192 -23.10106 11.30362 12.47472 4.475888 -21.68157 -6.073885 -94.8438 14.51252 29.18522 0 0 -7.390966 9.779689 15.54993 0.6042379
-86.22227 103.4151 3016.551 -1.135623 -6.04107 -12.96886 4.135945 15.26752 1.159601 -0 9.670001 -0 -5.420787 -13.41949 -0.303625 1.65277 -23.6024 -4.211057 -0 21.25606 -0 -3.008959 -6.014402 18.55337 -0.05321906 -2.371952 7.37865 -0.3378829 13.95446 -4.367688 1.201327 21.85511 4.703769 3.019943 -20.37447 5.476719 -0.233785 -26.498 12.47538 85.6482 21.06817 -8.994236 -0 0 23.02615 -23.69597 11.39322 13.08445 4.210072 -21.2114 -5.976755 -95.90887 14.09441 31.30044 0 0 -5.663605 9.263104 15.47415 1.257653
-86.71254 102.2715 3022.642 -1.030879 -6.250676 -13.47555 3.427827 16.84829 1.15905 -0 12.86625 -0 -4.841152 -12.80636 -0.1008957 1.510253 -24.63415 -4.305616 -0 16.91818 -0 -2.775935 -6.376554 18.94783 0.008599464 -2.452177 7.77015 -0.4669453 14.12042 -4.149317 1.159436 21.73096 4.663968 3.027822 -20.45144 5.383669 -0.1865986 -27.21514 12.58753 85.08718 21.03884 -8.062339 -0 0 24.23891 -24.10292 11.50456 13.4887 4.02812 -20.95975 -5.927504 -96.65403 13.74199 32.82346 0 0 -4.579037 8.944447 15.43142 1.680853
-87.17755 101.29 3028.852 -0.9281364 -6.719664 -13.80232 2.62898 17.43136 1.429335 -0 18.04579 -0 -3.990853 -11.30993 -0.3398146 0.9166521 -24.23689 -4.686543 -0 15.29771 -0 -2.882573 -6.721913 19.09916 0.05655868 -2.53163 7.99814 -0.5133128 14.25225 -4.079775 1.111105 21.61753 4.664759 3.046898 -20.56791 5.327479 -0.1282781 -27.65753 12.67914 84.7967 21.08908 -7.661559 -0 0 24.91146 -24.31121 11.61835 13.68678 3.931403 -20.89962 -5.918378 -97.07087 13.50611 33.72366 0 0 -4.108129 8.80787 15.42243 1.886751
-87.64539 100.667 3035.203 -0.8135733 -7.368713 -13.90972 1.750555 16.98227 1.855496 -0 24.79103 -0 -2.911467 -9.031246 -0.9657324 -0.04691484 -22.48868 -5.294589 -0 15.56606 -0 -3.244799 -7.161105 19.01614 0.08759468 -2.60108 8.081143 -0.4924482 14.34023 -4.12672 1.063634 21.52469 4.696036 3.072697 -20.70427 5.305898 -0.06470702 -27.84841 12.74446 84.72767 21.2061 -7.690663 -0 0 25.11664 -24.34006 11.71917 13.70887 3.907165 -20.98113 -5.935494 -97.20884 13.40304 34.07924 0 0 -4.134656 8.810616 15.4416 1.923465
-88.12671 100.5181 3041.689 -0.6659633 -8.065978 -13.76418 0.8442514 15.43855 2.319613 -0 32.43555 -0 -1.6951 -6.219857 -1.886853 -1.271689 -19.51291 -6.090375 -0 16.73584 -0 -3.717938 -7.821311 18.74922 0.1005054 -2.656012 8.03041 -0.4135774 14.38054 -4.271927 1.0208 21.45738 4.751952 3.102747 -20.84913 5.317056 -0.0003055319 -27.80311 12.78059 84.85665 21.37738 -8.093652 -0 0 24.89713 -24.20373 11.79898 13.57313 3.948026 -21.17789 -5.972064 -97.09546 13.43404 33.93457 0 0 -4.592944 8.93127 15.48481 1.814648
-88.6167 100.8697 3048.255 -0.4705771 -8.652407 -13.35186 0.004735119 12.69969 2.720125 -0 40.10298 -0 -0.4876283 -3.226778 -2.986298 -2.635126 -15.44 -7.05337 -0 17.99882 -0 -4.142776 -8.804547 18.36285 0.09424795 -2.694207 7.839943 -0.2766236 14.37076 -4.516252 0.984232 21.41928 4.831633 3.136176 -20.99648 5.361868 0.06040056 -27.5105 12.78439 85.19838 21.59251 -8.881656 -0 0 24.23495 -23.9015 11.85417 13.27587 4.05653 -21.4923 -6.029637 -96.71695 13.59783 33.26211 0 0 -5.493662 9.177163 15.55092 1.549292
-89.10108 101.6488 3054.798 -0.2352186 -8.94584 -12.6986 -0.6277641 8.736215 2.97959 -0 46.57945 -0 0.4801925 -0.540337 -4.086344 -3.975286 -10.52712 -8.16178 -0 18.77601 -0 -4.35449 -10.14507 17.94041 0.06695539 -2.712426 7.497931 -0.07937945 14.3058 -4.864494 0.9557926 21.41522 4.935344 3.172237 -21.14033 5.442787 0.1136754 -26.94866 12.75167 85.77865 21.83938 -10.08234 -0 0 23.09352 -23.42594 11.879 12.80693 4.238017 -21.93139 -6.109916 -96.04771 13.89153 32.00793 0 0 -6.866506 9.560003 15.63822 1.111169
-89.5667 102.6761 3061.175 -0.002664297 -8.777237 -11.88407 -0.895159 3.733535 3.053296 -0 50.37783 -0 0.9096029 1.271854 -4.941905 -5.084711 -5.267747 -9.361407 -0 18.73333 -0 -4.215706 -11.76892 17.57246 0.0162378 -2.70455 7.007609 0.1720089 14.17687 -5.304331 0.9391598 21.4511 5.059639 3.208937 -21.27105 5.560527 0.1591544 -26.11731 12.67903 86.59062 22.10161 -11.66443 -0 0 21.48973 -22.77991 11.86078 12.17501 4.48909 -22.47498 -6.204628 -95.09873 14.30549 30.17466 0 0 -8.674775 10.06181 15.74046 0.5209626
-90.01558 103.6961 3067.264 0.1597099 -8.080722 -11.02514 -0.7008707 -1.87744 2.922452 -0 50.2977 -0 0.5806563 1.838926 -5.347363 -5.771803 -0.2875055 -10.52829 -0 17.82108 -0 -3.701655 -13.50364 17.29186 -0.05801107 -2.665404 6.400067 0.4595015 13.97948 -5.800943 0.9377853 21.52867 5.196418 3.243504 -21.37915 5.710573 0.2010303 -25.06249 12.56827 87.57528 22.36186 -13.51078 -0 0 19.5321 -21.9915 11.78664 11.42064 4.792262 -23.07098 -6.29614 -93.94021 14.8147 27.87329 0 0 -10.78485 10.62794 15.84757 -0.1542705
-90.47305 104.4541 3073.018 0.1992496 -6.963526 -10.22719 -0.09119077 -7.58548 2.576307 -0 46.18949 -0 -0.4618884 1.275193 -5.291506 -5.965011 3.968065 -11.47387 -0 16.2716 -0 -2.959998 -15.16154 17.01622 -0.1498398 -2.599844 5.7164 0.7660369 13.72769 -6.325966 0.9492595 21.63837 5.339563 3.27528 -21.46571 5.883396 0.2434378 -23.85631 12.42987 88.67306 22.60399 -15.51167 -0 0 17.34988 -21.10876 11.66212 10.59135 5.128134 -23.68562 -6.377126 -92.64934 15.3683 25.25213 0 0 -13.07116 11.2199 15.95192 -0.8655547
-90.98157 104.7789 3078.494 0.1107343 -5.666024 -9.546351 0.7548373 -12.99831 2.020272 -0 39.13926 -0 -1.913559 0.1270478 -4.960847 -5.753165 7.42914 -12.02776 -0 14.54328 -0 -2.249248 -16.61643 16.5942 -0.2469202 -2.525622 4.986568 1.08581 13.45798 -6.879255 0.963677 21.75945 5.489066 3.306835 -21.54384 6.066769 0.2840844 -22.56583 12.28154 89.87387 22.80407 -17.64206 -0 0 15.01904 -20.18783 11.51811 9.716471 5.486932 -24.3395 -6.463512 -91.26232 15.88333 22.41269 0 0 -15.50351 11.85733 16.04992 -1.634841
-91.58606 104.6203 3083.818 -0.06979578 -4.453246 -8.990452 1.62387 -17.85254 1.295666 -0 30.86651 -0 -3.397902 -0.9658625 -4.587539 -5.314907 10.25883 -12.10981 -0 13.21996 -0 -1.813952 -17.79176 15.90868 -0.3351165 -2.462897 4.250888 1.408872 13.21359 -7.453643 0.9708517 21.86939 5.642114 3.340156 -21.62447 6.244902 0.3162205 -21.2785 12.1433 91.15011 22.9311 -19.84549 -0 0 12.64809 -19.30098 11.39118 8.837286 5.853545 -25.04727 -6.572838 -89.83945 16.26999 19.50457 0 0 -18.01724 12.5576 16.13606 -2.482369
